<mxfile host="app.diagrams.net" modified="2023-07-24T11:52:36.585Z" agent="Mozilla/5.0 (Macintosh; Intel Mac OS X 10_15_7) AppleWebKit/605.1.15 (KHTML, like Gecko) Version/16.3 Safari/605.1.15" version="21.6.5" etag="LZ4j2qVsbiR_xqG7Lqy3" type="github">
  <diagram name="Page-1" id="zrJNWIOXKjDKUvVxFT1h">
    <mxGraphModel>
      <root>
        <mxCell id="0" />
        <mxCell id="1" parent="0" />
      </root>
    </mxGraphModel>
  </diagram>
</mxfile>
